<?xml version="1.0" encoding="UTF-8" standalone="no"?>
<!-- Created with Inkscape (http://www.inkscape.org/) -->

<svg
   xmlns:dc="http://purl.org/dc/elements/1.1/"
   xmlns:cc="http://creativecommons.org/ns#"
   xmlns:rdf="http://www.w3.org/1999/02/22-rdf-syntax-ns#"
   xmlns:svg="http://www.w3.org/2000/svg"
   xmlns="http://www.w3.org/2000/svg"
   version="1.1"
   width="657.19415"
   height="720.29468"
   id="svg2">
  <defs
     id="defs4" />
  <metadata
     id="metadata7">
    <rdf:RDF>
      <cc:Work
         rdf:about="">
        <dc:format>image/svg+xml</dc:format>
        <dc:type
           rdf:resource="http://purl.org/dc/dcmitype/StillImage" />
        <dc:title></dc:title>
      </cc:Work>
    </rdf:RDF>
  </metadata>
  <g
     transform="translate(-2329.9706,-109.55896)"
     id="layer1">
    <path
       d="m 2540.8297,829.36618 c -15.5269,-1.76993 -23.0017,-3.06258 -34.8664,-6.02962 -27.4575,-6.86631 -54.3918,-17.5879 -69.0619,-27.49106 -8.4025,-5.67217 -19.1264,-16.05559 -23.1445,-22.40966 -1.7729,-2.80362 -3.6894,-5.42901 -4.2591,-5.83421 -0.5696,-0.40521 -4.9119,-0.74365 -9.6496,-0.75209 -21.2657,-0.0379 -41.4385,-9.64604 -55.9454,-26.64625 -13.2201,-15.4923 -17.2369,-36.45928 -11.1702,-58.30724 3.9573,-14.2517 13.2882,-26.6247 27.3192,-36.22603 5.7769,-3.95306 16.6709,-9.19592 19.1104,-9.197 2.7197,-10e-4 3.116,-2.54946 0.8861,-5.698 -1.101,-1.55456 -2.282,-3.95459 -2.6244,-5.33342 -0.5512,-2.21884 -0.4312,-2.16121 1.0436,0.50139 2.5986,4.69138 4.6166,6.66168 8.7324,8.5256 l 3.8074,1.72424 -6.3144,1.20698 c -10.5048,2.00802 -23.808,9.10393 -32.4401,17.3037 -7.958,7.5593 -14.0751,16.45777 -15.1332,22.01412 -0.3536,1.85664 -1.3154,4.71023 -2.1372,6.34131 -2.3427,4.64941 -2.2052,30.38127 0.2011,37.64717 4.9761,15.02585 18.4836,29.68314 34.141,37.04723 9.0088,4.23713 18.7469,6.31359 31.1154,6.63481 l 11.0306,0.28646 2.2559,4.60912 c 2.8195,5.76097 14.756,17.90355 23.1537,23.55326 20.8905,14.05476 61.2881,28.26878 92.9691,32.7114 31.2622,4.38389 76.4365,-1.84392 106.6757,-14.70649 9.0728,-3.85919 17.7594,-8.41198 36.9918,-19.38807 4.5879,-2.61838 8.5661,-4.53634 8.8404,-4.26214 0.2741,0.2742 -1.3153,1.51795 -3.5322,2.76388 -4.9158,2.76286 -5.9783,4.97849 -3.255,6.78785 1.1009,0.73145 4.632,3.43896 7.8469,6.01671 7.3482,5.89183 16.9134,10.62392 27.042,13.37826 6.4882,1.76438 10.8458,2.15513 24.9111,2.23387 17.3357,0.0971 22.5458,-0.5785 35.0974,-4.55076 3.3092,-1.04726 7.2394,-2.79715 8.7339,-3.88863 1.4943,-1.09149 3.3309,-1.98452 4.0813,-1.98452 0.7503,0 3.2094,-1.57939 5.4646,-3.50975 2.2551,-1.93036 4.5668,-3.50974 5.137,-3.50974 0.5703,0 2.6557,-0.95517 4.6343,-2.12258 2.7812,-1.64094 3.4553,-2.57065 2.9708,-4.0972 -0.5672,-1.78722 -0.4036,-1.85966 1.7244,-0.76325 1.2932,0.66626 3.4793,2.24452 4.8581,3.50726 4.1001,3.75486 14.4677,8.47532 22.2773,10.14309 8.7938,1.87795 31.9173,1.2942 41.3995,-1.04512 19.2429,-4.74729 41.5238,-21.16146 47.7108,-35.14811 3.0119,-6.80885 4.1031,-16.19 3.0148,-25.91763 -0.5066,-4.528 -0.6992,-8.45472 -0.4278,-8.72604 1.4218,-1.42181 3.4682,5.80303 4.4,15.53453 0.2851,2.97703 -2.5827,15.679 -4.5232,20.03455 -4.8714,10.93374 -16.1462,21.45248 -31.6231,29.5024 -10.5324,5.47824 -19.4861,7.97716 -32.7479,9.13974 -22.6942,1.98948 -38.6434,-1.77806 -51.6958,-12.21169 l -2.7169,-2.17175 -4.3026,3.95772 c -21.0215,19.33633 -59.0765,26.31089 -91.8068,16.82598 -13.0995,-3.79608 -23.2941,-9.87752 -32.0785,-19.13597 l -3.2597,-3.43558 -4.2612,2.59549 c -24.6685,15.02554 -47.6486,23.86919 -74.3401,28.60894 -18.248,3.24039 -40.674,4.68331 -52.2608,3.36254 z m 394.5956,-80.50198 c 1.3789,-1.12261 3.2984,-2.05113 4.2656,-2.0634 0.9672,-0.0122 3.4423,-0.92481 5.5005,-2.02787 2.058,-1.10306 4.2574,-2.00557 4.8874,-2.00557 0.6301,0 1.7074,-0.67688 2.3939,-1.50417 0.6866,-0.8273 2.0943,-1.50418 3.1283,-1.50418 1.0339,0 3.628,-1.57939 5.7648,-3.50975 2.1366,-1.93036 4.3367,-3.50974 4.889,-3.50974 1.3392,0 8.2711,-7.61316 11.0569,-12.14345 4.805,-7.81386 6.8177,-17.25903 6.3855,-29.96502 -0.1219,-3.58029 -0.654,-6.94213 -1.1826,-7.47074 -0.5287,-0.52862 -0.9612,-2.09964 -0.9612,-3.49116 0,-1.39152 -1.6871,-5.92661 -3.749,-10.07798 -5.4974,-11.06757 -16.2103,-21.55227 -27.5532,-26.96599 -4.7189,-2.25224 -10.5493,-4.42582 -12.9563,-4.83015 -6.0265,-1.01232 -17.1508,-0.99253 -24.8122,0.0441 -4.6353,0.62724 -6.2067,0.5582 -5.7068,-0.25069 0.3794,-0.61394 1.6785,-1.12316 2.887,-1.1316 1.2084,-0.008 2.8739,-0.44483 3.7012,-0.96974 4.7623,-3.02162 -15.0366,-37.49897 -27.1884,-47.3453 -8.3633,-6.77665 -17.2757,-9.83722 -26.733,-9.18033 -6.2371,0.43323 -6.3619,0.54434 -9.289,8.26728 -7.3147,19.29877 -25.2168,38.13299 -50.6056,53.2408 -4.9638,2.95373 -10.0548,5.99001 -11.3133,6.74728 -4.3471,2.61577 -1.4623,3.56871 8.6889,2.87028 5.6358,-0.38776 11.9361,-0.22283 15.1592,0.39685 8.3503,1.60545 18.4124,5.76687 21.3426,8.82677 12.1918,12.73127 7.9455,40.67201 -6.9527,45.74831 -2.5956,0.88443 -6.0303,1.60805 -7.6326,1.60805 -4.599,0 -2.8792,1.71554 5.7789,5.76442 4.4114,2.06305 8.6172,4.31755 9.346,5.00999 0.7288,0.69245 1.7442,1.259 2.2563,1.259 0.5121,0 1.7208,0.67222 2.6859,1.49385 14.2191,12.10407 14.137,13.87019 -0.1902,4.08827 -10.8153,-7.38421 -17.5036,-10.98035 -25.6089,-13.76949 -9.6689,-3.32721 -27.0412,-5.9727 -45.1479,-6.87527 -9.6518,-0.48111 -20.0306,-1.36379 -23.064,-1.96151 -6.8573,-1.35121 -31.1147,-0.39658 -39.9228,1.57114 -8.6907,1.94147 -11.1549,1.80396 -20.8914,-1.16585 -9.3063,-2.83859 -13.3821,-4.54312 -33.5642,-14.03671 l -13.6542,-6.42293 -11.4154,4.09806 c -26.1621,9.39206 -35.6353,11.44987 -38.9404,8.45883 -1.4233,-1.28814 -2.9479,-0.92487 -13.1151,3.12515 -6.3276,2.5205 -15.3078,5.36129 -19.9561,6.31288 l -8.4516,1.73015 5.985,4.06431 c 3.2918,2.23537 6.5952,4.79954 7.3409,5.69816 2.7242,3.28243 0.074,2.66741 -5.8546,-1.35869 -6.9649,-4.72974 -20.5242,-11.64485 -30.4981,-15.55369 -15.8256,-6.20207 -39.9713,-9.186 -66.626,-8.23359 -9.2326,0.32989 -18.366,0.84551 -20.2964,1.14582 -3.0853,0.47999 -3.2178,0.4198 -1.0959,-0.49778 7.8424,-3.39125 42.4973,-4.28984 60.3884,-1.56582 13.6263,2.07469 20.206,3.77717 31.7746,8.22176 5.1371,1.97361 9.526,3.40242 9.7534,3.17514 0.2272,-0.22728 -0.4517,-2.68943 -1.5087,-5.47143 -2.2014,-5.79355 -4.6214,-18.45833 -5.6203,-29.41266 l -0.6852,-7.51521 -7.3299,-7.52654 c -4.0314,-4.1396 -11.7019,-10.91094 -17.0455,-15.04743 -15.8231,-12.24855 -50.5357,-47.45498 -60.5018,-61.36249 -1.8544,-2.58784 -3.9909,-4.94275 -4.7476,-5.23314 -0.7568,-0.29038 -1.3759,-1.26082 -1.3759,-2.15652 0,-0.89568 -1.1642,-4.90791 -2.5871,-8.91605 -1.4229,-4.00813 -2.4383,-8.55993 -2.2562,-10.11511 0.2773,-2.37092 0.6253,-1.86727 2.1545,3.11858 4.0992,13.36532 11.5198,25.48652 22.3643,36.53108 2.4369,2.4819 9.1895,9.55999 15.0058,15.72909 10.7285,11.37947 23.034,20.86459 33.7604,26.02294 2.8947,1.39198 6.3911,3.16901 7.7699,3.94895 7.095,4.0133 22.9709,10.16201 44.1225,17.0886 23.3264,7.63874 25.8397,8.47772 35.5989,11.88381 2.7576,0.96245 6.3677,2.12782 8.0222,2.58974 4.0733,1.1371 17.1596,5.76243 19.3174,6.8276 0.9576,0.47276 3.2311,1.64019 5.0521,2.59429 1.8211,0.9541 3.9221,1.50021 4.6691,1.2136 0.7468,-0.28663 2.1472,0.35094 3.1118,1.41681 0.9646,1.06587 2.7853,1.93794 4.0462,1.93794 1.2608,0 2.5679,0.44579 2.9046,0.99065 0.8942,1.44687 19.7661,10.69193 29.0882,14.24993 4.4122,1.68403 9.4442,3.68196 11.1822,4.43988 1.738,0.7579 3.5865,1.37801 4.1077,1.37801 0.5214,0 2.4623,0.75546 4.3132,1.6788 2.9493,1.47132 4.3572,1.53422 11.392,0.50887 4.4148,-0.64347 8.5569,-1.73737 9.2047,-2.43089 1.2941,-1.38546 4.606,-11.45042 6.3543,-19.31107 0.6135,-2.75766 2.5242,-9.60073 4.2462,-15.20682 2.2988,-7.48384 3.5001,-10.05127 4.5196,-9.66004 0.9989,0.3833 1.0925,0.88969 0.3336,1.80408 -0.5802,0.69917 -1.7267,3.69242 -2.5477,6.65168 -4.7562,17.14419 -8.4644,31.6784 -8.4725,33.20774 -0.01,1.52404 1.033,1.75487 7.9148,1.75487 l 7.9242,0 3.2045,-1.12664 c 0,0.75728 25.0457,2.59979 57.1587,4.20493 9.6518,0.48243 18.7666,1.1635 20.255,1.51347 2.1356,0.50212 3.2412,0.0593 5.2422,-2.09983 1.3947,-1.5049 2.7425,-4.14779 2.9952,-5.8731 4.1333,-28.22224 4.2647,-31.49907 1.4283,-35.64018 -3.6524,-5.33271 -8.9403,-7.55364 -18.8901,-7.93374 -4.688,-0.17908 -12.1337,0.20348 -16.5459,0.85014 -4.4123,0.64667 -11.1811,1.11528 -15.0418,1.04134 -3.8607,-0.0739 -12.4345,0.31647 -19.0529,0.86756 -10.1332,0.84378 -12.2944,1.32226 -13.6865,3.03021 -1.3075,1.60409 -1.7673,1.73089 -2.1988,0.60639 -0.3,-0.78201 -2.038,-1.57704 -3.8621,-1.76673 -3.6175,-0.37619 -4.1871,-0.23187 19.246,-4.87612 13.787,-2.73245 31.688,-8.92682 40.7023,-14.08442 8.7272,-4.99328 17.3995,-12.41688 25.5754,-21.89277 3.3556,-3.8891 6.2981,-7.07109 6.5391,-7.07109 0.2409,0 -0.2744,1.37754 -1.145,3.06122 -2.235,4.32188 -14.7064,17.21404 -21.9467,22.68699 -6.3159,4.77426 -17.8963,10.71266 -23.1513,11.87192 -13.0286,2.87417 -16.2356,6.25845 -4.8226,5.08916 12.6783,-1.29894 38.786,-17.72102 56.5349,-35.56127 13.1406,-13.20828 17.3618,-20.14034 22.9772,-37.73295 4.2452,-13.30015 4.0408,-21.02982 -0.817,-30.89745 -3.7875,-7.69346 -12.5469,-17.68306 -18.6327,-21.24963 -5.572,-3.26535 -15.5306,-5.48024 -24.7214,-5.4982 -16.4096,-0.0321 -26.1702,3.74358 -38.0058,14.70148 -3.7675,3.4882 -7.0791,6.34217 -7.359,6.34217 -0.2799,0 -0.2643,-1.01532 0.034,-2.25626 0.6105,-2.53426 5.1142,-7.77158 6.6829,-7.77158 0.5623,0 3.6819,-1.86554 6.9323,-4.14565 10.9584,-7.68685 13.8222,-8.38915 34.2083,-8.38915 l 17.9699,0 2.3091,-4.51253 c 2.4404,-4.76907 2.4819,-5.96909 0.8093,-23.40436 -0.5058,-5.2733 -1.2175,-8.03901 -2.1617,-8.40137 -1.1115,-0.42651 -1.2909,-2.20815 -0.8526,-8.46746 0.4865,-6.94832 0.2456,-8.66246 -1.9506,-13.88038 -1.8408,-4.37361 -2.5056,-7.75751 -2.5056,-12.7541 0,-5.91411 -0.653,-8.34205 -5.0078,-18.61792 -2.7544,-6.49929 -5.2939,-13.60562 -5.6435,-15.79185 -0.3825,-2.3914 -1.1838,-3.97493 -2.0117,-3.97493 -0.9599,0 -1.3573,-1.28855 -1.3143,-4.26184 0.086,-5.92697 2.5203,-18.62738 3.2198,-16.79664 0.3161,0.8273 1.046,6.82745 1.622,13.33368 1.0282,11.61375 1.7503,14.30392 9.206,34.29858 1.0554,2.83032 1.8839,7.70421 1.9024,11.19129 0.025,4.73612 0.7346,7.66062 3.0412,12.5348 2.6488,5.59733 2.9851,7.31663 2.813,14.37973 -0.1076,4.41225 0.5692,12.02985 1.504,16.92799 2.4843,13.01775 2.2581,20.33013 -0.8074,26.09545 -1.3789,2.59321 -2.507,4.87381 -2.507,5.06798 0,0.19418 1.9178,1.47729 4.2618,2.85137 2.344,1.37407 6.8069,5.16699 9.9175,8.42867 9.88,10.36025 14.5572,22.87241 12.8549,34.38888 -1.5468,10.46365 -2.1108,9.72661 7.8125,10.2094 11.8165,0.57487 18.2405,3.54592 27.2205,12.58921 9.9889,10.05913 20.6303,26.94699 24.5742,38.99864 l 1.682,5.13993 11.2421,0.48458 c 13.2965,0.57313 19.2028,2.50238 30.2197,9.87091 20.5807,13.76523 31.6981,38.06417 27.2952,59.6585 -4.1543,20.3757 -17.2091,34.45112 -39.779,42.88885 -3.5715,1.33521 -8.0731,2.7331 -10.0035,3.10641 l -3.5097,0.67876 2.5069,-2.0411 z m -109.3035,-47.54887 c 4.3464,-2.57548 6.2149,-4.5332 8.8157,-9.23672 3.0364,-5.49114 3.2619,-6.50745 2.8187,-12.70551 -0.4871,-6.8124 -3.2621,-14.67322 -6.408,-18.15202 -1.9809,-2.19044 -9.1938,-6.07393 -9.9243,-5.34334 -0.2709,0.27088 0.4371,1.76893 1.5734,3.329 2.6189,3.59601 2.8209,8.07103 0.753,16.68699 -0.9018,3.75706 -1.6594,9.1721 -1.6835,12.03341 -0.024,2.86132 -0.7309,7.00741 -1.5702,9.21353 -3.4244,9.00077 -3.0225,9.29899 5.6252,4.17466 z m -278.3442,-1.417 c -1.0602,-2.36184 -0.9538,-5.7485 0.3744,-11.92623 1.7493,-8.13606 0.7355,-16.13652 -2.58,-20.36123 -4.7418,-6.04222 -6.2473,-8.89618 -6.2244,-11.79976 0.021,-2.65027 0.1223,-2.58804 1.9848,1.2182 1.0795,2.20612 3.5193,6.15722 5.4218,8.7802 4.2099,5.80419 5.4383,13.14574 3.7409,22.35793 -1.4729,7.99352 -1.4384,9.68838 0.2442,11.98946 1.2646,1.72938 1.7695,1.78152 5.766,0.59531 2.4091,-0.71502 5.1636,-1.70732 6.1214,-2.20509 0.9577,-0.49778 2.4675,-0.90505 3.355,-0.90505 0.8876,0 2.8115,-0.62463 4.2755,-1.38805 1.4639,-0.76343 5.2804,-2.5941 8.481,-4.06817 3.2006,-1.47408 6.0582,-3.30248 6.3501,-4.06313 0.2919,-0.76065 -0.1575,-4.68344 -0.9986,-8.71732 -2.3609,-11.32237 -2.9095,-15.47409 -1.8969,-14.35383 1.4159,1.56624 3.0627,8.24161 4.3295,17.54873 0.638,4.68802 1.3448,9.14877 1.5705,9.91279 0.5506,1.864 9.5828,0.82264 15.7339,-1.81403 2.4788,-1.06253 4.732,-1.70676 5.0071,-1.43163 0.2752,0.27514 1.896,-0.22149 3.6018,-1.10362 1.7058,-0.88213 3.1015,-1.31476 3.1015,-0.9614 0,0.35336 1.1123,-0.0863 2.4718,-0.97703 1.3594,-0.89074 3.3038,-1.61951 4.3208,-1.61951 1.0171,0 2.7251,-0.66253 3.7957,-1.47229 1.0706,-0.80975 2.7362,-1.48663 3.7014,-1.50418 3.986,-0.0724 1.2851,-2.72216 -5.5185,-5.414 -3.9968,-1.58133 -9.072,-3.65989 -11.2781,-4.61901 -2.2062,-0.95914 -5.3649,-2.05775 -7.0195,-2.44137 -1.6546,-0.38362 -7.1895,-2.3029 -12.2999,-4.26506 -6.7581,-2.59485 -9.6402,-3.27813 -10.5705,-2.50603 -0.9384,0.77881 -1.5872,0.56804 -2.4362,-0.79142 -1.3462,-2.15569 -35.5338,-13.84101 -41.8407,-14.30122 -3.5322,-0.25774 -4.1428,0.0432 -5.5153,2.71853 -3.2232,6.28269 -1.3391,32.67367 3.2062,44.90857 1.3948,3.75434 5.3912,6.73481 9.0305,6.73481 2.47,0 2.8455,-0.30051 2.1928,-1.75487 z m -16.538,-50.49269 c 1.6635,-3.19154 1.8835,-4.42813 0.9812,-5.51531 -0.6397,-0.77077 -1.6719,-1.41026 -2.2938,-1.42109 -0.6219,-0.0108 -5.841,-2.03174 -11.598,-4.4909 -5.757,-2.45915 -10.6816,-4.25696 -10.9434,-3.99513 -0.6611,0.66113 19.1364,19.42913 20.5574,19.48834 0.6337,0.0264 2.1172,-1.80326 3.2966,-4.06591 z m 180.7288,-3.38026 c -8.3071,-6.58814 -20.1827,-15.18053 -25.0269,-18.10786 -0.9409,-0.56861 -4.2267,-2.67544 -7.3015,-4.68186 -6.0368,-3.93917 -6.0308,-3.93563 -25.7174,-15.14018 -7.2918,-4.15015 -14.5119,-8.43538 -16.0445,-9.52275 -10.9453,-7.76553 -43.2621,-23.16009 -59.444,-28.31703 -9.0186,-2.87413 -34.4437,-16.80735 -40.1972,-22.0285 -8.8384,-8.02064 -13.5952,-12.61694 -14.3306,-13.84694 -1.3052,-2.18287 0.6235,-0.83032 10.4053,7.29692 15.4958,12.8747 17.6366,13.87708 16.6657,7.8035 -0.6213,-3.88638 -1.8531,-19.65552 -1.743,-22.31195 0.034,-0.82729 -0.2003,-8.87811 -0.5214,-17.89069 -0.5795,-16.26704 -0.6049,-16.41053 -3.4741,-19.67836 -1.5897,-1.81052 -5.1153,-4.249 -7.8346,-5.41886 -2.7195,-1.16985 -5.8816,-3.31832 -7.0268,-4.77439 -3.2274,-4.10289 -2.4572,-4.82039 1.2419,-1.15686 1.8284,1.81086 5.7768,4.187 8.7744,5.2803 2.9974,1.09331 5.7517,2.13401 6.1206,2.31267 0.3688,0.17867 0.4184,-10.45775 0.1103,-23.63649 -0.4158,-17.77796 -0.2491,-24.45597 0.6461,-25.87811 1.0676,-1.6961 1.1373,-1.59153 0.6057,0.90826 -0.3303,1.55378 -0.1093,9.4507 0.4913,17.54873 0.6006,8.09804 1.8921,32.77382 2.87,54.83508 1.9346,43.64007 2.25,45.53858 7.9408,47.78546 4.2329,1.67123 186.1161,1.12924 190.1733,-0.56668 5.9516,-2.48789 6.0015,-2.71427 6.1843,-28.03503 0.1637,-22.67062 0.986,-33.16523 4.0039,-51.09969 0.8192,-4.86854 1.5503,-14.57048 1.6246,-21.55988 0.1519,-14.29588 -1.4436,-21.20708 -5.8521,-25.34942 l -2.5544,-2.4003 -38.2762,0 c -33.0651,0 -74.3902,0.71811 -114.4879,1.98945 -11.9957,0.38034 -42.7068,0.79214 -46.438,0.62267 -3.5833,-0.16275 -1.5051,-2.11073 2.2519,-2.11073 5.4946,0 5.8407,-1.20626 4.6404,-16.17452 -0.5869,-7.31892 -1.0229,-15.13476 -0.9688,-17.36851 0.089,-3.67949 0.2246,-3.44848 1.4424,2.45671 0.7392,3.58495 1.4205,8.99999 1.5141,12.03341 0.093,3.03342 0.6854,8.44847 1.3153,12.03342 1.0605,6.0358 1.3307,6.50878 3.6522,6.39203 1.3788,-0.0693 21.6626,-0.44016 45.075,-0.82406 25.5138,-0.41834 43.3312,-1.10645 44.4731,-1.71756 1.4399,-0.77061 1.7492,-1.6713 1.2665,-3.68848 -1.1867,-4.95898 -1.7606,-71.73881 -0.7555,-87.90556 0.9783,-15.73493 0.9559,-16.08762 -1.1604,-18.27653 -4.2095,-4.35407 -7.0931,-3.967 -20.208,2.71258 -6.6184,3.37081 -13.6987,7.11275 -15.7342,8.31541 -2.0355,1.20266 -4.0393,1.84822 -4.453,1.43456 -0.4136,-0.41366 -1.0984,-6.6157 -1.5216,-13.78231 -0.4233,-7.16662 -1.2372,-14.71431 -1.8088,-16.77264 -0.5717,-2.05835 -1.0488,-4.87058 -1.0603,-6.24941 -0.041,-4.94045 -1.3357,-5.48536 -6.2243,-2.62038 -5.8109,3.40534 -7.4293,3.3905 -2.2717,-0.0209 6.1975,-4.09921 12.3857,-10.46873 13.5252,-13.9216 0.7666,-2.32291 0.6807,-4.15507 -0.3317,-7.07427 -0.7515,-2.1667 -2.851,-9.95112 -4.6658,-17.2987 -3.2083,-12.9904 -3.4026,-13.42437 -7.037,-15.71871 -4.7696,-3.01091 -6.3292,-6.9587 -8.5181,-21.56267 -1.0869,-7.25136 -3.1784,-15.5184 -5.6344,-22.27126 -5.0913,-13.99876 -6.2916,-19.90869 -5.5277,-27.21707 0.6499,-6.21801 4.054,-14.86832 7.65,-19.43994 1.4321,-1.82063 1.8952,-3.46274 1.4928,-5.29435 -1.0921,-4.97256 9.6138,-17.24229 18.9148,-21.67761 3.1013,-1.4789 3.5788,-2.15766 3.3808,-4.80507 -0.2226,-2.9753 -0.09,-3.0808 3.7804,-3.02323 14.2744,0.21228 44.5002,1.56265 46.3842,2.07225 1.2439,0.33647 2.9445,0.0449 3.7792,-0.64778 1.2367,-1.02632 1.8663,-0.94402 3.4007,0.44454 1.0357,0.93724 4.5768,2.08484 7.8693,2.55023 3.2925,0.46539 7.5133,1.63219 9.3796,2.5929 5.4411,2.80094 15.3314,13.60761 18.7923,20.53328 2.8098,5.62301 3.0111,6.56936 1.7889,8.41008 -1.22,1.83733 -1.0988,2.439 1.0608,5.27044 1.3409,1.75797 4.0169,7.61401 5.9467,13.01342 4.3549,12.18425 4.0666,15.64245 -2.3928,28.7029 -4.367,8.82994 -4.608,9.7732 -5.2543,20.57253 -0.6178,10.32373 -0.9341,11.68271 -3.599,15.4657 -1.6069,2.2811 -4.2754,4.89446 -5.93,5.80748 -2.2467,1.23975 -3.1917,2.65573 -3.7324,5.59277 -0.3982,2.16299 -1.4458,7.54274 -2.3278,11.95499 -0.8822,4.41225 -2.0463,11.40667 -2.5871,15.54316 -1.641,12.5534 -2.79,16.13738 -7.6158,23.75527 -3.8525,6.08159 -14.0608,16.89483 -22.5948,23.93373 -1.3646,1.12556 -1.7682,3.06412 -1.8151,8.71762 -0.033,3.9986 -0.3707,10.88021 -0.7501,15.29246 -1.3355,15.52903 -0.3664,77.50383 1.3132,83.97601 l 0.7138,2.75048 44.2663,-0.11408 c 47.3681,-0.12206 48.4346,-0.0222 52.553,4.92336 1.7417,2.09141 2.4669,2.41611 3.1156,1.39487 1.1608,-1.82771 3.1541,-24.69367 3.1453,-36.08125 -0.01,-10.4131 1.6481,-23.22605 3.2005,-24.7603 0.6831,-0.67505 0.8133,-0.0196 0.3983,2.00557 -0.339,1.6546 -0.8006,12.12915 -1.0258,23.27679 -0.2252,11.14765 -0.6754,20.6988 -1.0004,21.22477 -0.7555,1.2223 -1.8292,13.43033 -1.6425,18.67386 0.485,13.61558 6.3035,37.60442 9.1211,37.60442 0.5184,0 1.6006,-1.57506 2.4049,-3.50015 1.8248,-4.36735 6.7591,-9.52057 7.3677,-7.69466 0.2352,0.70566 -0.2955,2.08213 -1.1794,3.05882 -0.884,0.9767 -1.6072,2.53408 -1.6072,3.46085 0,0.92677 -1.3537,3.10162 -3.0083,4.833 -3.0323,3.1731 -4.014,6.86163 -1.8261,6.86163 0.6503,0 2.6241,-0.52135 4.3863,-1.15855 1.7692,-0.63975 4.0462,-0.80954 5.0851,-0.37916 1.4657,0.60725 0.7738,1.04489 -3.1328,1.98152 -6.5958,1.58142 -10.8566,3.89166 -13.4708,7.30382 -10.7605,14.04565 -11.0134,14.96778 -10.9379,39.88463 0.076,25.0913 -1.6877,29.69536 -11.9234,31.12372 -3,0.41863 -8.3321,2.66301 -14.3085,6.02264 -5.2395,2.94543 -14.9415,7.8118 -21.5599,10.81416 -6.6183,3.00235 -17.4484,8.0517 -24.0668,11.22078 -6.6184,3.16908 -16.768,7.7229 -22.5549,10.11959 -5.7869,2.3967 -10.6556,4.75967 -10.8194,5.25106 -0.1637,0.49139 4.5709,3.72999 10.5216,7.1969 17.8835,10.41915 45.8248,29.47515 52.765,35.98585 3.2439,3.04315 6.4542,7.19598 5.4712,7.07748 -0.1573,-0.019 -4.4991,-3.37583 -9.6485,-7.4597 z m -45.5892,-51.22686 c 6.5076,-3.17765 20.2215,-9.67998 30.4753,-14.44963 10.2539,-4.76965 20.2385,-9.61325 22.1882,-10.76356 1.9496,-1.15032 4.6158,-2.43112 5.9249,-2.84623 4.1888,-1.32837 10.0073,-5.4951 9.2913,-6.65371 -0.4784,-0.7739 -5.0829,-0.90957 -15.3295,-0.45165 -8.0552,0.35997 -45.4439,0.67872 -83.0859,0.70832 -44.1597,0.0347 -68.44,0.40374 -68.44,1.04015 0,0.54247 1.6922,1.65155 3.7604,2.46461 2.0683,0.81307 4.544,1.91818 5.5018,2.4558 0.9576,0.53762 2.2234,0.97749 2.8126,0.97749 1.0384,0 6.1603,2.14615 14.5649,6.10288 2.2424,1.05566 4.3745,1.91939 4.7381,1.91939 0.3636,0 3.6168,1.35376 7.2294,3.00836 3.6126,1.65459 6.8599,3.00835 7.2163,3.00835 0.3565,0 1.3605,0.58616 2.2312,1.30258 0.8707,0.71642 4.065,2.38777 7.0984,3.7141 3.0334,1.32634 7.2965,3.67332 9.4733,5.21552 2.177,1.5422 4.3165,2.804 4.7546,2.804 0.4381,0 2.9267,1.62597 5.5303,3.61328 6.1595,4.7017 8.6027,4.37986 24.0644,-3.17005 z m 101.0016,-107.37695 4.9357,-5.62719 -1.0875,-4.6387 c -0.9124,-3.89193 -5.1791,-16.71033 -6.0221,-18.09273 -0.7597,-1.24561 -1.4084,2.01641 -3.2442,16.31464 -1.1135,8.67219 -2.0246,16.2016 -2.0246,16.73205 0,2.33168 2.8725,0.52229 7.4427,-4.68807 z m -138.7809,-168.3625 c 0.672,-0.80975 2.0082,-1.47227 2.9693,-1.47227 0.9612,0 2.8238,-0.82891 4.1391,-1.84202 1.3154,-1.01311 4.7605,-2.68163 7.6561,-3.70783 2.8955,-1.02621 5.2646,-2.35627 5.2646,-2.95571 0,-0.59942 -1.2641,-1.83664 -2.8092,-2.74935 -3.5604,-2.10314 -20.0161,-15.45935 -22.958,-18.63375 -1.2206,-1.31704 -2.7261,-3.93031 -3.3455,-5.80728 -1.55,-4.69659 -3.5243,-4.27332 -4.8628,1.04254 -1.498,5.94866 -1.415,8.63741 0.4006,12.98266 0.9479,2.26874 1.7023,8.21257 1.9989,15.7507 0.2622,6.65879 0.7103,12.48519 0.9961,12.94755 0.589,0.95317 8.6885,-3.3114 10.5508,-5.55524 z m 43.0214,-15.26056 c 4.7447,-4.8259 10.2447,-11.25625 12.2221,-14.28967 3.9764,-6.10009 7.5563,-14.72238 6.536,-15.74264 -0.3609,-0.36088 -3.8324,2.79095 -7.7146,7.00408 -5.6156,6.09434 -8.712,8.48789 -15.1479,11.70913 -9.7586,4.88436 -14.2585,5.16291 -24.9053,1.54169 -8.3721,-2.84751 -10.5969,-4.15036 -16.7094,-9.78461 -4.6336,-4.27104 -5.7501,-3.52391 -2.195,1.46876 3.6433,5.11647 33.886,26.86763 37.3566,26.86763 1.1014,0 5.6366,-3.76922 10.5575,-8.77437 z m -4.5799,-12.5581 c 17.8648,-9.52184 26.1003,-24.89007 29.2475,-54.57904 0.6227,-5.87329 0.7697,-6.15124 2.6514,-5.01392 4.1116,2.485 9.8558,-8.14209 9.8558,-18.2337 0,-7.06108 -2.4411,-6.23339 -5.5715,1.88904 -0.9565,2.48189 -2.3948,5.18941 -3.1961,6.01671 -1.2776,1.31912 -1.3523,0.949 -0.6065,-3.00835 1.2234,-6.49173 0.7888,-14.2909 -0.9878,-17.7265 -1.5864,-3.06787 -14.4034,-16.36817 -15.7733,-16.36817 -0.4251,0 -1.0077,0.56406 -1.2948,1.25348 -0.9026,2.1675 -3.4754,-2.09082 -4.7769,-7.90604 -0.7232,-3.23194 -1.7411,-5.38086 -2.5487,-5.38086 -0.7396,0 -1.3447,0.37435 -1.3447,0.8319 0,0.45754 -2.4451,3.53385 -5.4336,6.83623 -8.5248,9.42028 -22.0083,15.34139 -35.0254,15.38109 l -4.8603,0.0148 4.8603,-4.42986 c 2.8295,-2.57904 5.2405,-4.06319 5.7704,-3.55225 0.5416,0.52232 0.3823,1.51358 -0.3936,2.44852 -0.7171,0.86401 -1.1266,1.73942 -0.9102,1.94538 1.1686,1.1118 13.1184,-1.94386 18.2056,-4.65531 5.8549,-3.1206 17.9354,-14.90107 20.0826,-19.58375 1.5682,-3.42001 3.5204,-2.7769 3.5204,1.15968 0,1.87877 0.292,4.74528 0.6489,6.37003 0.5319,2.42198 1.066,2.87431 2.9653,2.51124 1.9381,-0.37049 2.4208,0.0787 2.9549,2.74904 0.6062,3.03093 2.373,5.09836 11.0248,12.90099 2.0608,1.85846 4.6394,5.1286 5.7303,7.26698 1.7164,3.36444 2.2295,3.7343 3.8107,2.74682 5.2361,-3.26994 13.1144,-19.47905 13.1532,-27.06172 0.042,-8.15682 -6.5539,-23.40556 -12.435,-28.74879 -3.897,-3.5406 -3.8816,-5.75794 0.033,-4.77534 4.0301,1.01148 2.9925,-1.77026 -4.3055,-11.54391 -8.3635,-11.20055 -12.8053,-13.86019 -27.3916,-16.40116 -9.6926,-1.68849 -55.1531,-2.91899 -55.1531,-1.49285 0,0.37132 0.6719,1.23276 1.4931,1.91431 2.1221,1.76113 0.9312,3.01752 -2.8601,3.01752 -3.9341,0 -10.9425,4.26309 -15.4297,9.38552 -3.5702,4.07572 -4.0606,5.65624 -1.7549,5.65624 2.3461,0 1.791,1.92696 -1.7548,6.0929 -8.2474,9.68979 -9.1976,11.57305 -11.2684,22.33399 -1.1869,6.16746 -1.1252,7.69975 0.6056,15.04176 2.0478,8.68675 3.1106,11.69369 7.4625,21.11219 2.7029,5.84977 2.7493,5.88935 4.0348,3.43595 1.6344,-3.11945 6.7162,-4.69924 17.0879,-5.31218 l 7.8993,-0.46682 -8.6912,1.83378 c -4.78,1.00858 -9.4122,2.11049 -10.2935,2.4487 -2.8095,1.07811 -3.7339,5.40028 -2.4983,11.68116 0.6211,3.15698 0.9405,6.59547 0.7098,7.64109 -0.3434,1.55577 -0.8351,1.21827 -2.7068,-1.85782 -2.9249,-4.8068 -4.391,-3.93172 -3.5066,2.09299 1.2684,8.63985 4.8323,14.4307 8.3199,13.51864 1.3656,-0.3571 1.9846,0.49596 2.8098,3.8725 3.5542,14.54267 8.8561,31.99729 11.011,36.24975 3.1884,6.29193 10.6406,14.28672 15.8518,17.00596 6.0255,3.14406 16.5138,5.70772 21.0219,5.13835 2.1724,-0.27437 6.6499,-1.93799 9.95,-3.69694 z m -12.5782,-15.28867 c 1.83,-0.79484 4.6763,-2.4058 6.3252,-3.57989 3.004,-2.13908 4.721,-2.07401 3.3605,0.12736 -0.9737,1.57548 -8.5008,4.93647 -11.0074,4.91494 -1.4111,-0.0121 -1.0194,-0.44552 1.3217,-1.46241 z m -9.5226,-5.82279 c -3.9708,-1.46663 -5.7897,-3.24467 -2.3283,-2.27577 6.2749,1.75638 10.425,1.79013 16.5414,0.13449 8.4823,-2.29604 10.5775,-1.45238 3.226,1.29899 -6.3444,2.37445 -12.4877,2.67116 -17.4391,0.84229 z m 10.3128,-12.12647 c 2.2646,-0.70876 4.6337,-1.60771 5.2646,-1.99766 0.631,-0.38997 1.1472,-0.27528 1.1472,0.25486 0,1.16771 -5.5013,3.19157 -8.4226,3.09854 -1.2236,-0.0389 -0.3808,-0.60721 2.0108,-1.35574 z m -30.4405,-29.66212 c -1.241,-0.51674 -2.2548,-1.06688 -2.253,-1.22254 0,-0.15565 2.9847,-0.35536 6.6287,-0.44378 3.644,-0.0884 6.2373,0.21489 5.7628,0.67405 -1.4265,1.38037 -7.7259,1.9969 -10.1385,0.99227 z m 45.376,-0.92746 c -1.4814,-0.57995 -0.5642,-0.93279 3.5097,-1.35015 3.0334,-0.31075 6.5306,-0.88087 7.7716,-1.26691 3.1005,-0.96452 2.8621,0.93963 -0.2978,2.3794 -2.8713,1.30822 -7.9672,1.41849 -10.9835,0.23766 z m -36.1003,-4.65955 c -2.7576,-0.76734 -6.5095,-1.40387 -8.3377,-1.41451 -3.4893,-0.0204 -13.2221,-3.73009 -13.2221,-5.03979 0,-1.43471 4.2843,-1.88216 12.9212,-1.34948 11.2342,0.69286 14.9931,1.85887 15.753,4.88667 0.5961,2.37501 -0.1058,4.57038 -1.4075,4.40194 -0.3811,-0.0493 -2.9492,-0.71749 -5.7069,-1.48483 z m 27.6165,-0.3852 c -4.0018,-2.53126 10.0247,-9.08938 19.3694,-9.05615 4.3233,0.0153 8.8631,1.76502 9.0575,3.49075 0.062,0.5492 -2.4925,1.32396 -5.6764,1.72168 -3.184,0.39771 -8.7593,1.64056 -12.3897,2.76188 -7.4318,2.29543 -8.299,2.38598 -10.3608,1.08184 z m -285.6008,396.05396 c 0,-1.93036 0.2064,-2.72005 0.4586,-1.75487 0.2523,0.96518 0.2523,2.54456 0,3.50974 -0.2522,0.96518 -0.4586,0.17549 -0.4586,-1.75487 z m -0.1119,-10.52924 c -0.2374,-7.21208 4.9845,-18.41616 12.3155,-26.4238 4.1001,-4.47858 14.9691,-12.21935 17.0506,-12.14324 0.604,0.0221 -0.2557,0.7564 -1.9103,1.63183 -6.5258,3.45272 -12.7796,9.09895 -16.4528,14.85428 -6.0498,9.47931 -9.0764,15.69066 -10.0265,20.57676 -0.6985,3.59216 -0.8977,3.89895 -0.9765,1.50417 z m 31.9684,-39.60998 c 0.8273,-0.53464 2.181,-0.94727 3.0083,-0.91694 0.9919,0.0363 0.821,0.34868 -0.5014,0.91694 -2.7567,1.18461 -4.34,1.18461 -2.5069,0 z m 129.3849,-32.6473 c -11.6638,-9.85155 -27.998,-20.16545 -36.3663,-22.96257 -9.6769,-3.23461 -32.7758,-5.39964 -38.2685,-3.58688 -4.3307,1.4293 -15.6352,13.1861 -22.5932,23.49727 -4.8078,7.12498 -7.8218,9.88511 -6.4061,5.86665 1.5377,-4.36536 19.2831,-25.50321 24.8293,-29.57621 l 4.0716,-2.99009 13.2184,0.63665 13.2183,0.63666 -0.5751,-10.90238 c -0.5429,-10.29096 -0.4266,-11.22692 2.0741,-16.68913 1.4571,-3.18272 2.6492,-6.39349 2.6492,-7.13504 0,-0.74154 2.2563,-8.10435 5.0139,-16.3618 2.7577,-8.25742 5.0209,-16.28279 5.0293,-17.83414 0.01,-1.55134 0.4529,-3.49751 0.9875,-4.32479 0.7038,-1.08912 0.9763,-0.20331 0.9874,3.21011 0.019,5.71281 -2.5828,15.89267 -6.4828,25.36924 -0.681,1.65459 -2.0475,5.49024 -3.0367,8.52367 -0.9893,3.03342 -2.717,7.32032 -3.8394,9.52645 -1.5864,3.1182 -2.0357,5.91341 -2.0187,12.55626 0.031,11.92558 1.1869,13.97167 9.3893,16.61633 8.2236,2.65152 20.2297,8.90696 24.0571,12.53423 0.9258,0.8775 4.1242,3.2243 7.1075,5.2151 5.4017,3.60479 9.7171,7.33382 13.351,11.53698 3.3758,3.90474 0.2811,2.27796 -6.3971,-3.36257 z m -32.5869,-107.09563 c -1.5686,-1.14708 -1.8572,-2.748 -1.8525,-10.27854 0,-4.9733 0.7144,-11.58193 1.6076,-14.93657 0.8812,-3.30919 3.0109,-12.90464 4.7329,-21.32323 6.0089,-29.37758 12.113,-47.91764 17.9548,-54.53448 5.3718,-6.08439 22.473,-16.02925 34.9347,-20.31551 5.6518,-1.94395 13.2947,-5.35509 16.9841,-7.58027 3.6893,-2.2252 7.1878,-4.01928 7.7741,-3.98684 0.5863,0.0324 0.2334,0.59649 -0.7843,1.25348 -1.0177,0.65697 -4.8097,3.11382 -8.4267,5.45966 -3.6636,2.37604 -9.7283,5.1517 -13.6928,6.26676 -9.1741,2.58036 -26.0192,10.92364 -31.4634,15.58376 -5.2048,4.45509 -8.3862,9.95066 -10.7145,18.50823 -0.9753,3.58495 -2.3743,7.87185 -3.1089,9.52644 -1.2569,2.83141 -2.4605,7.12983 -2.9481,10.52924 -0.1187,0.82729 -0.9181,4.21169 -1.7766,7.52088 -0.8584,3.30919 -1.8747,8.4986 -2.2584,11.53202 -0.3838,3.03342 -1.1358,6.0577 -1.6711,6.72062 -0.5353,0.66292 -0.7901,2.01668 -0.5662,3.00835 0.224,0.99168 -0.1371,2.93118 -0.8024,4.31001 -0.6652,1.37883 -1.54,4.98885 -1.944,8.02227 -0.4039,3.03343 -1.1597,6.32394 -1.6795,7.31228 -1.8463,3.51028 -1.3079,11.26062 1.0082,14.51325 3.1482,4.42128 2.5619,5.71712 -1.307,2.88819 z m 306.5539,-47.77776 c 0,-1.93036 0.2064,-2.72005 0.4587,-1.75487 0.2522,0.96518 0.2522,2.54457 0,3.50975 -0.2523,0.96518 -0.4587,0.17548 -0.4587,-1.75488 z m -1.4743,-6.0167 c -0.302,-0.8273 -1.0794,-4.09119 -1.7274,-7.25309 -0.648,-3.1619 -1.5988,-6.00887 -2.1129,-6.32658 -0.5141,-0.31772 -0.9415,-1.56637 -0.9498,-2.77476 -0.016,-2.39904 -2.2085,-9.26746 -3.3088,-10.36777 -0.378,-0.37798 -0.6873,-1.43008 -0.6873,-2.33799 0,-0.90792 -1.1752,-4.1043 -2.6118,-7.10306 -6.3603,-13.2772 -16.7665,-25.06742 -25.9675,-29.42138 -5.6283,-2.66333 -23.0429,-8.88656 -38.0224,-13.58753 -5.4695,-1.71648 -11.5614,-3.83013 -13.5376,-4.69701 -7.4071,-3.24913 -12.7313,-5.88717 -16.3587,-8.10527 -2.0573,-1.25801 -4.0209,-2.28728 -4.3636,-2.28728 -1.2191,0 0.7762,14.69424 3.2946,24.26306 2.8207,10.71704 2.5989,13.38346 -1.0367,12.47097 -1.2747,-0.31994 -8.5942,-1.05813 -16.2656,-1.64042 -20.1357,-1.52838 -20.2803,-3.3862 -0.2002,-2.57229 l 15.7939,0.64017 0,-2.97759 c 0,-1.63769 -0.6467,-6.05307 -1.4372,-9.81196 -0.7905,-3.75889 -2.1349,-11.12126 -2.9876,-16.36081 -0.8527,-5.23954 -1.982,-11.00172 -2.5095,-12.80484 -1.2529,-4.28274 0.3997,-3.30539 2.7056,1.60011 3.359,7.14564 16.4687,13.56121 46.847,22.92575 20.7533,6.39746 28.8684,9.82072 35.811,15.10652 8.9453,6.81043 17.1929,19.45848 23.2544,35.66146 4.0541,10.83677 7.8889,25.30087 7.3248,27.62739 -0.3381,1.39402 -0.4793,1.41403 -0.9467,0.1342 z"
       id="path3082-3"
       style="fill:#ffffff" />
    <path
       d="m 2540.8297,829.36618 c -15.5269,-1.76993 -23.0017,-3.06258 -34.8664,-6.02962 -27.4575,-6.86631 -54.3918,-17.5879 -69.0619,-27.49106 -8.4025,-5.67217 -19.1264,-16.05559 -23.1445,-22.40966 -1.7729,-2.80362 -3.6894,-5.42901 -4.2591,-5.83421 -0.5696,-0.40521 -4.9119,-0.74365 -9.6496,-0.75209 -21.2657,-0.0379 -41.4385,-9.64604 -55.9454,-26.64625 -13.2201,-15.4923 -17.2369,-36.45928 -11.1702,-58.30724 3.9573,-14.2517 13.2882,-26.6247 27.3192,-36.22603 5.7769,-3.95306 16.6709,-9.19592 19.1104,-9.197 2.7197,-10e-4 3.116,-2.54946 0.8861,-5.698 -1.101,-1.55456 -2.282,-3.95459 -2.6244,-5.33342 -0.5512,-2.21884 -0.4312,-2.16121 1.0436,0.50139 2.5986,4.69138 4.6166,6.66168 8.7324,8.5256 l 3.8074,1.72424 -6.3144,1.20698 c -10.5048,2.00802 -23.808,9.10393 -32.4401,17.3037 -7.958,7.5593 -14.0751,16.45777 -15.1332,22.01412 -0.3536,1.85664 -1.3154,4.71023 -2.1372,6.34131 -2.3427,4.64941 -2.2052,30.38127 0.2011,37.64717 4.9761,15.02585 18.4836,29.68314 34.141,37.04723 9.0088,4.23713 18.7469,6.31359 31.1154,6.63481 l 11.0306,0.28646 2.2559,4.60912 c 2.8195,5.76097 14.756,17.90355 23.1537,23.55326 20.8905,14.05476 61.2881,28.26878 92.9691,32.7114 31.2622,4.38389 76.4365,-1.84392 106.6757,-14.70649 9.0728,-3.85919 17.7594,-8.41198 36.9918,-19.38807 4.5879,-2.61838 8.5661,-4.53634 8.8404,-4.26214 0.2741,0.2742 -1.3153,1.51795 -3.5322,2.76388 -4.9158,2.76286 -5.9783,4.97849 -3.255,6.78785 1.1009,0.73145 4.632,3.43896 7.8469,6.01671 7.3482,5.89183 16.9134,10.62392 27.042,13.37826 6.4882,1.76438 10.8458,2.15513 24.9111,2.23387 17.3357,0.0971 22.5458,-0.5785 35.0974,-4.55076 3.3092,-1.04726 7.2394,-2.79715 8.7339,-3.88863 1.4943,-1.09149 3.3309,-1.98452 4.0813,-1.98452 0.7503,0 3.2094,-1.57939 5.4646,-3.50975 2.2551,-1.93036 4.5668,-3.50974 5.137,-3.50974 0.5703,0 2.6557,-0.95517 4.6343,-2.12258 2.7812,-1.64094 3.4553,-2.57065 2.9708,-4.0972 -0.5672,-1.78722 -0.4036,-1.85966 1.7244,-0.76325 1.2932,0.66626 3.4793,2.24452 4.8581,3.50726 4.1001,3.75486 14.4677,8.47532 22.2773,10.14309 8.7938,1.87795 31.9173,1.2942 41.3995,-1.04512 19.2429,-4.74729 41.5238,-21.16146 47.7108,-35.14811 3.0119,-6.80885 4.1031,-16.19 3.0148,-25.91763 -0.5066,-4.528 -0.6992,-8.45472 -0.4278,-8.72604 1.4218,-1.42181 3.4682,5.80303 4.4,15.53453 0.2851,2.97703 -2.5827,15.679 -4.5232,20.03455 -4.8714,10.93374 -16.1462,21.45248 -31.6231,29.5024 -10.5324,5.47824 -19.4861,7.97716 -32.7479,9.13974 -22.6942,1.98948 -38.6434,-1.77806 -51.6958,-12.21169 l -2.7169,-2.17175 -4.3026,3.95772 c -21.0215,19.33633 -59.0765,26.31089 -91.8068,16.82598 -13.0995,-3.79608 -23.2941,-9.87752 -32.0785,-19.13597 l -3.2597,-3.43558 -4.2612,2.59549 c -24.6685,15.02554 -47.6486,23.86919 -74.3401,28.60894 -18.248,3.24039 -40.674,4.68331 -52.2608,3.36254 z m 394.5956,-80.50198 c 1.3789,-1.12261 3.2984,-2.05113 4.2656,-2.0634 0.9672,-0.0122 3.4423,-0.92481 5.5005,-2.02787 2.058,-1.10306 4.2574,-2.00557 4.8874,-2.00557 0.6301,0 1.7074,-0.67688 2.3939,-1.50417 0.6866,-0.8273 2.0943,-1.50418 3.1283,-1.50418 1.0339,0 3.628,-1.57939 5.7648,-3.50975 2.1366,-1.93036 4.3367,-3.50974 4.889,-3.50974 1.3392,0 8.2711,-7.61316 11.0569,-12.14345 4.805,-7.81386 6.8177,-17.25903 6.3855,-29.96502 -0.1219,-3.58029 -0.654,-6.94213 -1.1826,-7.47074 -0.5287,-0.52862 -0.9612,-2.09964 -0.9612,-3.49116 0,-1.39152 -1.6871,-5.92661 -3.749,-10.07798 -5.4974,-11.06757 -16.2103,-21.55227 -27.5532,-26.96599 -4.7189,-2.25224 -10.5493,-4.42582 -12.9563,-4.83015 -6.0265,-1.01232 -17.1508,-0.99253 -24.8122,0.0441 -4.6353,0.62724 -6.2067,0.5582 -5.7068,-0.25069 0.3794,-0.61394 1.6785,-1.12316 2.887,-1.1316 1.2084,-0.008 2.8739,-0.44483 3.7012,-0.96974 4.7623,-3.02162 -15.0366,-37.49897 -27.1884,-47.3453 -8.3633,-6.77665 -17.2757,-9.83722 -26.733,-9.18033 -6.2371,0.43323 -6.3619,0.54434 -9.289,8.26728 -7.3147,19.29877 -25.2168,38.13299 -50.6056,53.2408 -4.9638,2.95373 -10.0548,5.99001 -11.3133,6.74728 -4.3471,2.61577 -1.4623,3.56871 8.6889,2.87028 5.6358,-0.38776 11.9361,-0.22283 15.1592,0.39685 8.3503,1.60545 18.4124,5.76687 21.3426,8.82677 12.1918,12.73127 7.9455,40.67201 -6.9527,45.74831 -2.5956,0.88443 -6.0303,1.60805 -7.6326,1.60805 -4.599,0 -2.8792,1.71554 5.7789,5.76442 4.4114,2.06305 8.6172,4.31755 9.346,5.00999 0.7288,0.69245 1.7442,1.259 2.2563,1.259 0.5121,0 1.7208,0.67222 2.6859,1.49385 14.2191,12.10407 14.137,13.87019 -0.1902,4.08827 -10.8153,-7.38421 -17.5036,-10.98035 -25.6089,-13.76949 -9.6689,-3.32721 -27.0412,-5.9727 -45.1479,-6.87527 -9.6518,-0.48111 -20.0306,-1.36379 -23.064,-1.96151 -6.8573,-1.35121 -31.1147,-0.39658 -39.9228,1.57114 -8.6907,1.94147 -11.1549,1.80396 -20.8914,-1.16585 -9.3063,-2.83859 -13.3821,-4.54312 -33.5642,-14.03671 l -13.6542,-6.42293 -11.4154,4.09806 c -26.1621,9.39206 -35.6353,11.44987 -38.9404,8.45883 -1.4233,-1.28814 -2.9479,-0.92487 -13.1151,3.12515 -6.3276,2.5205 -15.3078,5.36129 -19.9561,6.31288 l -8.4516,1.73015 5.985,4.06431 c 3.2918,2.23537 6.5952,4.79954 7.3409,5.69816 2.7242,3.28243 0.074,2.66741 -5.8546,-1.35869 -6.9649,-4.72974 -20.5242,-11.64485 -30.4981,-15.55369 -15.8256,-6.20207 -39.9713,-9.186 -66.626,-8.23359 -9.2326,0.32989 -18.366,0.84551 -20.2964,1.14582 -3.0853,0.47999 -3.2178,0.4198 -1.0959,-0.49778 7.8424,-3.39125 42.4973,-4.28984 60.3884,-1.56582 13.6263,2.07469 20.206,3.77717 31.7746,8.22176 5.1371,1.97361 9.526,3.40242 9.7534,3.17514 0.2272,-0.22728 -0.4517,-2.68943 -1.5087,-5.47143 -2.2014,-5.79355 -4.6214,-18.45833 -5.6203,-29.41266 l -0.6852,-7.51521 -7.3299,-7.52654 c -4.0314,-4.1396 -11.7019,-10.91094 -17.0455,-15.04743 -15.8231,-12.24855 -50.5357,-47.45498 -60.5018,-61.36249 -1.8544,-2.58784 -3.9909,-4.94275 -4.7476,-5.23314 -0.7568,-0.29038 -1.3759,-1.26082 -1.3759,-2.15652 0,-0.89568 -1.1642,-4.90791 -2.5871,-8.91605 -1.4229,-4.00813 -2.4383,-8.55993 -2.2562,-10.11511 0.2773,-2.37092 0.6253,-1.86727 2.1545,3.11858 4.0992,13.36532 11.5198,25.48652 22.3643,36.53108 2.4369,2.4819 9.1895,9.55999 15.0058,15.72909 10.7285,11.37947 23.034,20.86459 33.7604,26.02294 2.8947,1.39198 6.3911,3.16901 7.7699,3.94895 7.095,4.0133 22.9709,10.16201 44.1225,17.0886 23.3264,7.63874 25.8397,8.47772 35.5989,11.88381 2.7576,0.96245 6.3677,2.12782 8.0222,2.58974 4.0733,1.1371 17.1596,5.76243 19.3174,6.8276 0.9576,0.47276 3.2311,1.64019 5.0521,2.59429 1.8211,0.9541 3.9221,1.50021 4.6691,1.2136 0.7468,-0.28663 2.1472,0.35094 3.1118,1.41681 0.9646,1.06587 2.7853,1.93794 4.0462,1.93794 1.2608,0 2.5679,0.44579 2.9046,0.99065 0.8942,1.44687 19.7661,10.69193 29.0882,14.24993 4.4122,1.68403 9.4442,3.68196 11.1822,4.43988 1.738,0.7579 3.5865,1.37801 4.1077,1.37801 0.5214,0 2.4623,0.75546 4.3132,1.6788 2.9493,1.47132 4.3572,1.53422 11.392,0.50887 4.4148,-0.64347 8.5569,-1.73737 9.2047,-2.43089 1.2941,-1.38546 4.606,-11.45042 6.3543,-19.31107 0.6135,-2.75766 2.5242,-9.60073 4.2462,-15.20682 2.2988,-7.48384 3.5001,-10.05127 4.5196,-9.66004 0.9989,0.3833 1.0925,0.88969 0.3336,1.80408 -0.5802,0.69917 -1.7267,3.69242 -2.5477,6.65168 -4.7562,17.14419 -8.4644,31.6784 -8.4725,33.20774 -0.01,1.52404 1.033,1.75487 7.9148,1.75487 l 7.9242,0 3.2045,-1.12664 c 0,0.75728 25.0457,2.59979 57.1587,4.20493 9.6518,0.48243 18.7666,1.1635 20.255,1.51347 2.1356,0.50212 3.2412,0.0593 5.2422,-2.09983 1.3947,-1.5049 2.7425,-4.14779 2.9952,-5.8731 4.1333,-28.22224 4.2647,-31.49907 1.4283,-35.64018 -3.6524,-5.33271 -8.9403,-7.55364 -18.8901,-7.93374 -4.688,-0.17908 -12.1337,0.20348 -16.5459,0.85014 -4.4123,0.64667 -11.1811,1.11528 -15.0418,1.04134 -3.8607,-0.0739 -12.4345,0.31647 -19.0529,0.86756 -10.1332,0.84378 -12.2944,1.32226 -13.6865,3.03021 -1.3075,1.60409 -1.7673,1.73089 -2.1988,0.60639 -0.3,-0.78201 -2.038,-1.57704 -3.8621,-1.76673 -3.6175,-0.37619 -4.1871,-0.23187 19.246,-4.87612 13.787,-2.73245 31.688,-8.92682 40.7023,-14.08442 8.7272,-4.99328 17.3995,-12.41688 25.5754,-21.89277 3.3556,-3.8891 6.2981,-7.07109 6.5391,-7.07109 0.2409,0 -0.2744,1.37754 -1.145,3.06122 -2.235,4.32188 -14.7064,17.21404 -21.9467,22.68699 -6.3159,4.77426 -17.8963,10.71266 -23.1513,11.87192 -13.0286,2.87417 -16.2356,6.25845 -4.8226,5.08916 12.6783,-1.29894 38.786,-17.72102 56.5349,-35.56127 13.1406,-13.20828 17.3618,-20.14034 22.9772,-37.73295 4.2452,-13.30015 4.0408,-21.02982 -0.817,-30.89745 -3.7875,-7.69346 -12.5469,-17.68306 -18.6327,-21.24963 -5.572,-3.26535 -15.5306,-5.48024 -24.7214,-5.4982 -16.4096,-0.0321 -26.1702,3.74358 -38.0058,14.70148 -3.7675,3.4882 -7.0791,6.34217 -7.359,6.34217 -0.2799,0 -0.2643,-1.01532 0.034,-2.25626 0.6105,-2.53426 5.1142,-7.77158 6.6829,-7.77158 0.5623,0 3.6819,-1.86554 6.9323,-4.14565 10.9584,-7.68685 13.8222,-8.38915 34.2083,-8.38915 l 17.9699,0 2.3091,-4.51253 c 2.4404,-4.76907 2.4819,-5.96909 0.8093,-23.40436 -0.5058,-5.2733 -1.2175,-8.03901 -2.1617,-8.40137 -1.1115,-0.42651 -1.2909,-2.20815 -0.8526,-8.46746 0.4865,-6.94832 0.2456,-8.66246 -1.9506,-13.88038 -1.8408,-4.37361 -2.5056,-7.75751 -2.5056,-12.7541 0,-5.91411 -0.653,-8.34205 -5.0078,-18.61792 -2.7544,-6.49929 -5.2939,-13.60562 -5.6435,-15.79185 -0.3825,-2.3914 -1.1838,-3.97493 -2.0117,-3.97493 -0.9599,0 -1.3573,-1.28855 -1.3143,-4.26184 0.086,-5.92697 2.5203,-18.62738 3.2198,-16.79664 0.3161,0.8273 1.046,6.82745 1.622,13.33368 1.0282,11.61375 1.7503,14.30392 9.206,34.29858 1.0554,2.83032 1.8839,7.70421 1.9024,11.19129 0.025,4.73612 0.7346,7.66062 3.0412,12.5348 2.6488,5.59733 2.9851,7.31663 2.813,14.37973 -0.1076,4.41225 0.5692,12.02985 1.504,16.92799 2.4843,13.01775 2.2581,20.33013 -0.8074,26.09545 -1.3789,2.59321 -2.507,4.87381 -2.507,5.06798 0,0.19418 1.9178,1.47729 4.2618,2.85137 2.344,1.37407 6.8069,5.16699 9.9175,8.42867 9.88,10.36025 14.5572,22.87241 12.8549,34.38888 -1.5468,10.46365 -2.1108,9.72661 7.8125,10.2094 11.8165,0.57487 18.2405,3.54592 27.2205,12.58921 9.9889,10.05913 20.6303,26.94699 24.5742,38.99864 l 1.682,5.13993 11.2421,0.48458 c 13.2965,0.57313 19.2028,2.50238 30.2197,9.87091 20.5807,13.76523 31.6981,38.06417 27.2952,59.6585 -4.1543,20.3757 -17.2091,34.45112 -39.779,42.88885 -3.5715,1.33521 -8.0731,2.7331 -10.0035,3.10641 l -3.5097,0.67876 2.5069,-2.0411 z m -109.3035,-47.54887 c 4.3464,-2.57548 6.2149,-4.5332 8.8157,-9.23672 3.0364,-5.49114 3.2619,-6.50745 2.8187,-12.70551 -0.4871,-6.8124 -3.2621,-14.67322 -6.408,-18.15202 -1.9809,-2.19044 -9.1938,-6.07393 -9.9243,-5.34334 -0.2709,0.27088 0.4371,1.76893 1.5734,3.329 2.6189,3.59601 2.8209,8.07103 0.753,16.68699 -0.9018,3.75706 -1.6594,9.1721 -1.6835,12.03341 -0.024,2.86132 -0.7309,7.00741 -1.5702,9.21353 -3.4244,9.00077 -3.0225,9.29899 5.6252,4.17466 z m -278.3442,-1.417 c -1.0602,-2.36184 -0.9538,-5.7485 0.3744,-11.92623 1.7493,-8.13606 0.7355,-16.13652 -2.58,-20.36123 -4.7418,-6.04222 -6.2473,-8.89618 -6.2244,-11.79976 0.021,-2.65027 0.1223,-2.58804 1.9848,1.2182 1.0795,2.20612 3.5193,6.15722 5.4218,8.7802 4.2099,5.80419 5.4383,13.14574 3.7409,22.35793 -1.4729,7.99352 -1.4384,9.68838 0.2442,11.98946 1.2646,1.72938 1.7695,1.78152 5.766,0.59531 2.4091,-0.71502 5.1636,-1.70732 6.1214,-2.20509 0.9577,-0.49778 2.4675,-0.90505 3.355,-0.90505 0.8876,0 2.8115,-0.62463 4.2755,-1.38805 1.4639,-0.76343 5.2804,-2.5941 8.481,-4.06817 3.2006,-1.47408 6.0582,-3.30248 6.3501,-4.06313 0.2919,-0.76065 -0.1575,-4.68344 -0.9986,-8.71732 -2.3609,-11.32237 -2.9095,-15.47409 -1.8969,-14.35383 1.4159,1.56624 3.0627,8.24161 4.3295,17.54873 0.638,4.68802 1.3448,9.14877 1.5705,9.91279 0.5506,1.864 9.5828,0.82264 15.7339,-1.81403 2.4788,-1.06253 4.732,-1.70676 5.0071,-1.43163 0.2752,0.27514 1.896,-0.22149 3.6018,-1.10362 1.7058,-0.88213 3.1015,-1.31476 3.1015,-0.9614 0,0.35336 1.1123,-0.0863 2.4718,-0.97703 1.3594,-0.89074 3.3038,-1.61951 4.3208,-1.61951 1.0171,0 2.7251,-0.66253 3.7957,-1.47229 1.0706,-0.80975 2.7362,-1.48663 3.7014,-1.50418 3.986,-0.0724 1.2851,-2.72216 -5.5185,-5.414 -3.9968,-1.58133 -9.072,-3.65989 -11.2781,-4.61901 -2.2062,-0.95914 -5.3649,-2.05775 -7.0195,-2.44137 -1.6546,-0.38362 -7.1895,-2.3029 -12.2999,-4.26506 -6.7581,-2.59485 -9.6402,-3.27813 -10.5705,-2.50603 -0.9384,0.77881 -1.5872,0.56804 -2.4362,-0.79142 -1.3462,-2.15569 -35.5338,-13.84101 -41.8407,-14.30122 -3.5322,-0.25774 -4.1428,0.0432 -5.5153,2.71853 -3.2232,6.28269 -1.3391,32.67367 3.2062,44.90857 1.3948,3.75434 5.3912,6.73481 9.0305,6.73481 2.47,0 2.8455,-0.30051 2.1928,-1.75487 z m -16.538,-50.49269 c 1.6635,-3.19154 1.8835,-4.42813 0.9812,-5.51531 -0.6397,-0.77077 -1.6719,-1.41026 -2.2938,-1.42109 -0.6219,-0.0108 -5.841,-2.03174 -11.598,-4.4909 -5.757,-2.45915 -10.6816,-4.25696 -10.9434,-3.99513 -0.6611,0.66113 19.1364,19.42913 20.5574,19.48834 0.6337,0.0264 2.1172,-1.80326 3.2966,-4.06591 z m 180.7288,-3.38026 c -8.3071,-6.58814 -20.1827,-15.18053 -25.0269,-18.10786 -0.9409,-0.56861 -4.2267,-2.67544 -7.3015,-4.68186 -6.0368,-3.93917 -6.0308,-3.93563 -25.7174,-15.14018 -7.2918,-4.15015 -14.5119,-8.43538 -16.0445,-9.52275 -10.9453,-7.76553 -43.2621,-23.16009 -59.444,-28.31703 -9.0186,-2.87413 -34.4437,-16.80735 -40.1972,-22.0285 -8.8384,-8.02064 -13.5952,-12.61694 -14.3306,-13.84694 -1.3052,-2.18287 0.6235,-0.83032 10.4053,7.29692 15.4958,12.8747 17.6366,13.87708 16.6657,7.8035 -0.6213,-3.88638 -1.8531,-19.65552 -1.743,-22.31195 0.034,-0.82729 -0.2003,-8.87811 -0.5214,-17.89069 -0.5795,-16.26704 -0.6049,-16.41053 -3.4741,-19.67836 -1.5897,-1.81052 -5.1153,-4.249 -7.8346,-5.41886 -2.7195,-1.16985 -5.8816,-3.31832 -7.0268,-4.77439 -3.2274,-4.10289 -2.4572,-4.82039 1.2419,-1.15686 1.8284,1.81086 5.7768,4.187 8.7744,5.2803 2.9974,1.09331 5.7517,2.13401 6.1206,2.31267 0.3688,0.17867 0.4184,-10.45775 0.1103,-23.63649 -0.4158,-17.77796 -0.2491,-24.45597 0.6461,-25.87811 1.0676,-1.6961 1.1373,-1.59153 0.6057,0.90826 -0.3303,1.55378 -0.1093,9.4507 0.4913,17.54873 0.6006,8.09804 1.8921,32.77382 2.87,54.83508 1.9346,43.64007 2.25,45.53858 7.9408,47.78546 4.2329,1.67123 186.1161,1.12924 190.1733,-0.56668 5.9516,-2.48789 6.0015,-2.71427 6.1843,-28.03503 0.1637,-22.67062 0.986,-33.16523 4.0039,-51.09969 0.8192,-4.86854 1.5503,-14.57048 1.6246,-21.55988 0.1519,-14.29588 -1.4436,-21.20708 -5.8521,-25.34942 l -2.5544,-2.4003 -38.2762,0 c -33.0651,0 -74.3902,0.71811 -114.4879,1.98945 -11.9957,0.38034 -42.7068,0.79214 -46.438,0.62267 -3.5833,-0.16275 -1.5051,-2.11073 2.2519,-2.11073 5.4946,0 5.8407,-1.20626 4.6404,-16.17452 -0.5869,-7.31892 -1.0229,-15.13476 -0.9688,-17.36851 0.089,-3.67949 0.2246,-3.44848 1.4424,2.45671 0.7392,3.58495 1.4205,8.99999 1.5141,12.03341 0.093,3.03342 0.6854,8.44847 1.3153,12.03342 1.0605,6.0358 1.3307,6.50878 3.6522,6.39203 1.3788,-0.0693 21.6626,-0.44016 45.075,-0.82406 25.5138,-0.41834 43.3312,-1.10645 44.4731,-1.71756 1.4399,-0.77061 1.7492,-1.6713 1.2665,-3.68848 -1.1867,-4.95898 -1.7606,-71.73881 -0.7555,-87.90556 0.9783,-15.73493 0.9559,-16.08762 -1.1604,-18.27653 -4.2095,-4.35407 -7.0931,-3.967 -20.208,2.71258 -6.6184,3.37081 -13.6987,7.11275 -15.7342,8.31541 -2.0355,1.20266 -4.0393,1.84822 -4.453,1.43456 -0.4136,-0.41366 -1.0984,-6.6157 -1.5216,-13.78231 -0.4233,-7.16662 -1.2372,-14.71431 -1.8088,-16.77264 -0.5717,-2.05835 -1.0488,-4.87058 -1.0603,-6.24941 -0.041,-4.94045 -1.3357,-5.48536 -6.2243,-2.62038 -5.8109,3.40534 -7.4293,3.3905 -2.2717,-0.0209 6.1975,-4.09921 12.3857,-10.46873 13.5252,-13.9216 0.7666,-2.32291 0.6807,-4.15507 -0.3317,-7.07427 -0.7515,-2.1667 -2.851,-9.95112 -4.6658,-17.2987 -3.2083,-12.9904 -3.4026,-13.42437 -7.037,-15.71871 -4.7696,-3.01091 -6.3292,-6.9587 -8.5181,-21.56267 -1.0869,-7.25136 -3.1784,-15.5184 -5.6344,-22.27126 -5.0913,-13.99876 -6.2916,-19.90869 -5.5277,-27.21707 0.6499,-6.21801 4.054,-14.86832 7.65,-19.43994 1.4321,-1.82063 1.8952,-3.46274 1.4928,-5.29435 -1.0921,-4.97256 9.6138,-17.24229 18.9148,-21.67761 3.1013,-1.4789 3.5788,-2.15766 3.3808,-4.80507 -0.2226,-2.9753 -0.09,-3.0808 3.7804,-3.02323 14.2744,0.21228 44.5002,1.56265 46.3842,2.07225 1.2439,0.33647 2.9445,0.0449 3.7792,-0.64778 1.2367,-1.02632 1.8663,-0.94402 3.4007,0.44454 1.0357,0.93724 4.5768,2.08484 7.8693,2.55023 3.2925,0.46539 7.5133,1.63219 9.3796,2.5929 5.4411,2.80094 15.3314,13.60761 18.7923,20.53328 2.8098,5.62301 3.0111,6.56936 1.7889,8.41008 -1.22,1.83733 -1.0988,2.439 1.0608,5.27044 1.3409,1.75797 4.0169,7.61401 5.9467,13.01342 4.3549,12.18425 4.0666,15.64245 -2.3928,28.7029 -4.367,8.82994 -4.608,9.7732 -5.2543,20.57253 -0.6178,10.32373 -0.9341,11.68271 -3.599,15.4657 -1.6069,2.2811 -4.2754,4.89446 -5.93,5.80748 -2.2467,1.23975 -3.1917,2.65573 -3.7324,5.59277 -0.3982,2.16299 -1.4458,7.54274 -2.3278,11.95499 -0.8822,4.41225 -2.0463,11.40667 -2.5871,15.54316 -1.641,12.5534 -2.79,16.13738 -7.6158,23.75527 -3.8525,6.08159 -14.0608,16.89483 -22.5948,23.93373 -1.3646,1.12556 -1.7682,3.06412 -1.8151,8.71762 -0.033,3.9986 -0.3707,10.88021 -0.7501,15.29246 -1.3355,15.52903 -0.3664,77.50383 1.3132,83.97601 l 0.7138,2.75048 44.2663,-0.11408 c 47.3681,-0.12206 48.4346,-0.0222 52.553,4.92336 1.7417,2.09141 2.4669,2.41611 3.1156,1.39487 1.1608,-1.82771 3.1541,-24.69367 3.1453,-36.08125 -0.01,-10.4131 1.6481,-23.22605 3.2005,-24.7603 0.6831,-0.67505 0.8133,-0.0196 0.3983,2.00557 -0.339,1.6546 -0.8006,12.12915 -1.0258,23.27679 -0.2252,11.14765 -0.6754,20.6988 -1.0004,21.22477 -0.7555,1.2223 -1.8292,13.43033 -1.6425,18.67386 0.485,13.61558 6.3035,37.60442 9.1211,37.60442 0.5184,0 1.6006,-1.57506 2.4049,-3.50015 1.8248,-4.36735 6.7591,-9.52057 7.3677,-7.69466 0.2352,0.70566 -0.2955,2.08213 -1.1794,3.05882 -0.884,0.9767 -1.6072,2.53408 -1.6072,3.46085 0,0.92677 -1.3537,3.10162 -3.0083,4.833 -3.0323,3.1731 -4.014,6.86163 -1.8261,6.86163 0.6503,0 2.6241,-0.52135 4.3863,-1.15855 1.7692,-0.63975 4.0462,-0.80954 5.0851,-0.37916 1.4657,0.60725 0.7738,1.04489 -3.1328,1.98152 -6.5958,1.58142 -10.8566,3.89166 -13.4708,7.30382 -10.7605,14.04565 -11.0134,14.96778 -10.9379,39.88463 0.076,25.0913 -1.6877,29.69536 -11.9234,31.12372 -3,0.41863 -8.3321,2.66301 -14.3085,6.02264 -5.2395,2.94543 -14.9415,7.8118 -21.5599,10.81416 -6.6183,3.00235 -17.4484,8.0517 -24.0668,11.22078 -6.6184,3.16908 -16.768,7.7229 -22.5549,10.11959 -5.7869,2.3967 -10.6556,4.75967 -10.8194,5.25106 -0.1637,0.49139 4.5709,3.72999 10.5216,7.1969 17.8835,10.41915 45.8248,29.47515 52.765,35.98585 3.2439,3.04315 6.4542,7.19598 5.4712,7.07748 -0.1573,-0.019 -4.4991,-3.37583 -9.6485,-7.4597 z m -45.5892,-51.22686 c 6.5076,-3.17765 20.2215,-9.67998 30.4753,-14.44963 10.2539,-4.76965 20.2385,-9.61325 22.1882,-10.76356 1.9496,-1.15032 4.6158,-2.43112 5.9249,-2.84623 4.1888,-1.32837 10.0073,-5.4951 9.2913,-6.65371 -0.4784,-0.7739 -5.0829,-0.90957 -15.3295,-0.45165 -8.0552,0.35997 -45.4439,0.67872 -83.0859,0.70832 -44.1597,0.0347 -68.44,0.40374 -68.44,1.04015 0,0.54247 1.6922,1.65155 3.7604,2.46461 2.0683,0.81307 4.544,1.91818 5.5018,2.4558 0.9576,0.53762 2.2234,0.97749 2.8126,0.97749 1.0384,0 6.1603,2.14615 14.5649,6.10288 2.2424,1.05566 4.3745,1.91939 4.7381,1.91939 0.3636,0 3.6168,1.35376 7.2294,3.00836 3.6126,1.65459 6.8599,3.00835 7.2163,3.00835 0.3565,0 1.3605,0.58616 2.2312,1.30258 0.8707,0.71642 4.065,2.38777 7.0984,3.7141 3.0334,1.32634 7.2965,3.67332 9.4733,5.21552 2.177,1.5422 4.3165,2.804 4.7546,2.804 0.4381,0 2.9267,1.62597 5.5303,3.61328 6.1595,4.7017 8.6027,4.37986 24.0644,-3.17005 z m 101.0016,-107.37695 4.9357,-5.62719 -1.0875,-4.6387 c -0.9124,-3.89193 -5.1791,-16.71033 -6.0221,-18.09273 -0.7597,-1.24561 -1.4084,2.01641 -3.2442,16.31464 -1.1135,8.67219 -2.0246,16.2016 -2.0246,16.73205 0,2.33168 2.8725,0.52229 7.4427,-4.68807 z m -138.7809,-168.3625 c 0.672,-0.80975 2.0082,-1.47227 2.9693,-1.47227 0.9612,0 2.8238,-0.82891 4.1391,-1.84202 1.3154,-1.01311 4.7605,-2.68163 7.6561,-3.70783 2.8955,-1.02621 5.2646,-2.35627 5.2646,-2.95571 0,-0.59942 -1.2641,-1.83664 -2.8092,-2.74935 -3.5604,-2.10314 -20.0161,-15.45935 -22.958,-18.63375 -1.2206,-1.31704 -2.7261,-3.93031 -3.3455,-5.80728 -1.55,-4.69659 -3.5243,-4.27332 -4.8628,1.04254 -1.498,5.94866 -1.415,8.63741 0.4006,12.98266 0.9479,2.26874 1.7023,8.21257 1.9989,15.7507 0.2622,6.65879 0.7103,12.48519 0.9961,12.94755 0.589,0.95317 8.6885,-3.3114 10.5508,-5.55524 z m 43.0214,-15.26056 c 4.7447,-4.8259 10.2447,-11.25625 12.2221,-14.28967 3.9764,-6.10009 7.5563,-14.72238 6.536,-15.74264 -0.3609,-0.36088 -3.8324,2.79095 -7.7146,7.00408 -5.6156,6.09434 -8.712,8.48789 -15.1479,11.70913 -9.7586,4.88436 -14.2585,5.16291 -24.9053,1.54169 -8.3721,-2.84751 -10.5969,-4.15036 -16.7094,-9.78461 -4.6336,-4.27104 -5.7501,-3.52391 -2.195,1.46876 3.6433,5.11647 33.886,26.86763 37.3566,26.86763 1.1014,0 5.6366,-3.76922 10.5575,-8.77437 z m -4.5799,-12.5581 c 17.8648,-9.52184 26.1003,-24.89007 29.2475,-54.57904 0.6227,-5.87329 0.7697,-6.15124 2.6514,-5.01392 4.1116,2.485 9.8558,-8.14209 9.8558,-18.2337 0,-7.06108 -2.4411,-6.23339 -5.5715,1.88904 -0.9565,2.48189 -2.3948,5.18941 -3.1961,6.01671 -1.2776,1.31912 -1.3523,0.949 -0.6065,-3.00835 1.2234,-6.49173 0.7888,-14.2909 -0.9878,-17.7265 -1.5864,-3.06787 -14.4034,-16.36817 -15.7733,-16.36817 -0.4251,0 -1.0077,0.56406 -1.2948,1.25348 -0.9026,2.1675 -3.4754,-2.09082 -4.7769,-7.90604 -0.7232,-3.23194 -1.7411,-5.38086 -2.5487,-5.38086 -0.7396,0 -1.3447,0.37435 -1.3447,0.8319 0,0.45754 -2.4451,3.53385 -5.4336,6.83623 -8.5248,9.42028 -22.0083,15.34139 -35.0254,15.38109 l -4.8603,0.0148 4.8603,-4.42986 c 2.8295,-2.57904 5.2405,-4.06319 5.7704,-3.55225 0.5416,0.52232 0.3823,1.51358 -0.3936,2.44852 -0.7171,0.86401 -1.1266,1.73942 -0.9102,1.94538 1.1686,1.1118 13.1184,-1.94386 18.2056,-4.65531 5.8549,-3.1206 17.9354,-14.90107 20.0826,-19.58375 1.5682,-3.42001 3.5204,-2.7769 3.5204,1.15968 0,1.87877 0.292,4.74528 0.6489,6.37003 0.5319,2.42198 1.066,2.87431 2.9653,2.51124 1.9381,-0.37049 2.4208,0.0787 2.9549,2.74904 0.6062,3.03093 2.373,5.09836 11.0248,12.90099 2.0608,1.85846 4.6394,5.1286 5.7303,7.26698 1.7164,3.36444 2.2295,3.7343 3.8107,2.74682 5.2361,-3.26994 13.1144,-19.47905 13.1532,-27.06172 0.042,-8.15682 -6.5539,-23.40556 -12.435,-28.74879 -3.897,-3.5406 -3.8816,-5.75794 0.033,-4.77534 4.0301,1.01148 2.9925,-1.77026 -4.3055,-11.54391 -8.3635,-11.20055 -12.8053,-13.86019 -27.3916,-16.40116 -9.6926,-1.68849 -55.1531,-2.91899 -55.1531,-1.49285 0,0.37132 0.6719,1.23276 1.4931,1.91431 2.1221,1.76113 0.9312,3.01752 -2.8601,3.01752 -3.9341,0 -10.9425,4.26309 -15.4297,9.38552 -3.5702,4.07572 -4.0606,5.65624 -1.7549,5.65624 2.3461,0 1.791,1.92696 -1.7548,6.0929 -8.2474,9.68979 -9.1976,11.57305 -11.2684,22.33399 -1.1869,6.16746 -1.1252,7.69975 0.6056,15.04176 2.0478,8.68675 3.1106,11.69369 7.4625,21.11219 2.7029,5.84977 2.7493,5.88935 4.0348,3.43595 1.6344,-3.11945 6.7162,-4.69924 17.0879,-5.31218 l 7.8993,-0.46682 -8.6912,1.83378 c -4.78,1.00858 -9.4122,2.11049 -10.2935,2.4487 -2.8095,1.07811 -3.7339,5.40028 -2.4983,11.68116 0.6211,3.15698 0.9405,6.59547 0.7098,7.64109 -0.3434,1.55577 -0.8351,1.21827 -2.7068,-1.85782 -2.9249,-4.8068 -4.391,-3.93172 -3.5066,2.09299 1.2684,8.63985 4.8323,14.4307 8.3199,13.51864 1.3656,-0.3571 1.9846,0.49596 2.8098,3.8725 3.5542,14.54267 8.8561,31.99729 11.011,36.24975 3.1884,6.29193 10.6406,14.28672 15.8518,17.00596 6.0255,3.14406 16.5138,5.70772 21.0219,5.13835 2.1724,-0.27437 6.6499,-1.93799 9.95,-3.69694 z m -12.5782,-15.28867 c 1.83,-0.79484 4.6763,-2.4058 6.3252,-3.57989 3.004,-2.13908 4.721,-2.07401 3.3605,0.12736 -0.9737,1.57548 -8.5008,4.93647 -11.0074,4.91494 -1.4111,-0.0121 -1.0194,-0.44552 1.3217,-1.46241 z m -9.5226,-5.82279 c -3.9708,-1.46663 -5.7897,-3.24467 -2.3283,-2.27577 6.2749,1.75638 10.425,1.79013 16.5414,0.13449 8.4823,-2.29604 10.5775,-1.45238 3.226,1.29899 -6.3444,2.37445 -12.4877,2.67116 -17.4391,0.84229 z m 10.3128,-12.12647 c 2.2646,-0.70876 4.6337,-1.60771 5.2646,-1.99766 0.631,-0.38997 1.1472,-0.27528 1.1472,0.25486 0,1.16771 -5.5013,3.19157 -8.4226,3.09854 -1.2236,-0.0389 -0.3808,-0.60721 2.0108,-1.35574 z m -30.4405,-29.66212 c -1.241,-0.51674 -2.2548,-1.06688 -2.253,-1.22254 0,-0.15565 2.9847,-0.35536 6.6287,-0.44378 3.644,-0.0884 6.2373,0.21489 5.7628,0.67405 -1.4265,1.38037 -7.7259,1.9969 -10.1385,0.99227 z m 45.376,-0.92746 c -1.4814,-0.57995 -0.5642,-0.93279 3.5097,-1.35015 3.0334,-0.31075 6.5306,-0.88087 7.7716,-1.26691 3.1005,-0.96452 2.8621,0.93963 -0.2978,2.3794 -2.8713,1.30822 -7.9672,1.41849 -10.9835,0.23766 z m -36.1003,-4.65955 c -2.7576,-0.76734 -6.5095,-1.40387 -8.3377,-1.41451 -3.4893,-0.0204 -13.2221,-3.73009 -13.2221,-5.03979 0,-1.43471 4.2843,-1.88216 12.9212,-1.34948 11.2342,0.69286 14.9931,1.85887 15.753,4.88667 0.5961,2.37501 -0.1058,4.57038 -1.4075,4.40194 -0.3811,-0.0493 -2.9492,-0.71749 -5.7069,-1.48483 z m 27.6165,-0.3852 c -4.0018,-2.53126 10.0247,-9.08938 19.3694,-9.05615 4.3233,0.0153 8.8631,1.76502 9.0575,3.49075 0.062,0.5492 -2.4925,1.32396 -5.6764,1.72168 -3.184,0.39771 -8.7593,1.64056 -12.3897,2.76188 -7.4318,2.29543 -8.299,2.38598 -10.3608,1.08184 z m -285.6008,396.05396 c 0,-1.93036 0.2064,-2.72005 0.4586,-1.75487 0.2523,0.96518 0.2523,2.54456 0,3.50974 -0.2522,0.96518 -0.4586,0.17549 -0.4586,-1.75487 z m -0.1119,-10.52924 c -0.2374,-7.21208 4.9845,-18.41616 12.3155,-26.4238 4.1001,-4.47858 14.9691,-12.21935 17.0506,-12.14324 0.604,0.0221 -0.2557,0.7564 -1.9103,1.63183 -6.5258,3.45272 -12.7796,9.09895 -16.4528,14.85428 -6.0498,9.47931 -9.0764,15.69066 -10.0265,20.57676 -0.6985,3.59216 -0.8977,3.89895 -0.9765,1.50417 z m 31.9684,-39.60998 c 0.8273,-0.53464 2.181,-0.94727 3.0083,-0.91694 0.9919,0.0363 0.821,0.34868 -0.5014,0.91694 -2.7567,1.18461 -4.34,1.18461 -2.5069,0 z m 129.3849,-32.6473 c -11.6638,-9.85155 -27.998,-20.16545 -36.3663,-22.96257 -9.6769,-3.23461 -32.7758,-5.39964 -38.2685,-3.58688 -4.3307,1.4293 -15.6352,13.1861 -22.5932,23.49727 -4.8078,7.12498 -7.8218,9.88511 -6.4061,5.86665 1.5377,-4.36536 19.2831,-25.50321 24.8293,-29.57621 l 4.0716,-2.99009 13.2184,0.63665 13.2183,0.63666 -0.5751,-10.90238 c -0.5429,-10.29096 -0.4266,-11.22692 2.0741,-16.68913 1.4571,-3.18272 2.6492,-6.39349 2.6492,-7.13504 0,-0.74154 2.2563,-8.10435 5.0139,-16.3618 2.7577,-8.25742 5.0209,-16.28279 5.0293,-17.83414 0.01,-1.55134 0.4529,-3.49751 0.9875,-4.32479 0.7038,-1.08912 0.9763,-0.20331 0.9874,3.21011 0.019,5.71281 -2.5828,15.89267 -6.4828,25.36924 -0.681,1.65459 -2.0475,5.49024 -3.0367,8.52367 -0.9893,3.03342 -2.717,7.32032 -3.8394,9.52645 -1.5864,3.1182 -2.0357,5.91341 -2.0187,12.55626 0.031,11.92558 1.1869,13.97167 9.3893,16.61633 8.2236,2.65152 20.2297,8.90696 24.0571,12.53423 0.9258,0.8775 4.1242,3.2243 7.1075,5.2151 5.4017,3.60479 9.7171,7.33382 13.351,11.53698 3.3758,3.90474 0.2811,2.27796 -6.3971,-3.36257 z m -32.5869,-107.09563 c -1.5686,-1.14708 -1.8572,-2.748 -1.8525,-10.27854 0,-4.9733 0.7144,-11.58193 1.6076,-14.93657 0.8812,-3.30919 3.0109,-12.90464 4.7329,-21.32323 6.0089,-29.37758 12.113,-47.91764 17.9548,-54.53448 5.3718,-6.08439 22.473,-16.02925 34.9347,-20.31551 5.6518,-1.94395 13.2947,-5.35509 16.9841,-7.58027 3.6893,-2.2252 7.1878,-4.01928 7.7741,-3.98684 0.5863,0.0324 0.2334,0.59649 -0.7843,1.25348 -1.0177,0.65697 -4.8097,3.11382 -8.4267,5.45966 -3.6636,2.37604 -9.7283,5.1517 -13.6928,6.26676 -9.1741,2.58036 -26.0192,10.92364 -31.4634,15.58376 -5.2048,4.45509 -8.3862,9.95066 -10.7145,18.50823 -0.9753,3.58495 -2.3743,7.87185 -3.1089,9.52644 -1.2569,2.83141 -2.4605,7.12983 -2.9481,10.52924 -0.1187,0.82729 -0.9181,4.21169 -1.7766,7.52088 -0.8584,3.30919 -1.8747,8.4986 -2.2584,11.53202 -0.3838,3.03342 -1.1358,6.0577 -1.6711,6.72062 -0.5353,0.66292 -0.7901,2.01668 -0.5662,3.00835 0.224,0.99168 -0.1371,2.93118 -0.8024,4.31001 -0.6652,1.37883 -1.54,4.98885 -1.944,8.02227 -0.4039,3.03343 -1.1597,6.32394 -1.6795,7.31228 -1.8463,3.51028 -1.3079,11.26062 1.0082,14.51325 3.1482,4.42128 2.5619,5.71712 -1.307,2.88819 z m 306.5539,-47.77776 c 0,-1.93036 0.2064,-2.72005 0.4587,-1.75487 0.2522,0.96518 0.2522,2.54457 0,3.50975 -0.2523,0.96518 -0.4587,0.17548 -0.4587,-1.75488 z m -1.4743,-6.0167 c -0.302,-0.8273 -1.0794,-4.09119 -1.7274,-7.25309 -0.648,-3.1619 -1.5988,-6.00887 -2.1129,-6.32658 -0.5141,-0.31772 -0.9415,-1.56637 -0.9498,-2.77476 -0.016,-2.39904 -2.2085,-9.26746 -3.3088,-10.36777 -0.378,-0.37798 -0.6873,-1.43008 -0.6873,-2.33799 0,-0.90792 -1.1752,-4.1043 -2.6118,-7.10306 -6.3603,-13.2772 -16.7665,-25.06742 -25.9675,-29.42138 -5.6283,-2.66333 -23.0429,-8.88656 -38.0224,-13.58753 -5.4695,-1.71648 -11.5614,-3.83013 -13.5376,-4.69701 -7.4071,-3.24913 -12.7313,-5.88717 -16.3587,-8.10527 -2.0573,-1.25801 -4.0209,-2.28728 -4.3636,-2.28728 -1.2191,0 0.7762,14.69424 3.2946,24.26306 2.8207,10.71704 2.5989,13.38346 -1.0367,12.47097 -1.2747,-0.31994 -8.5942,-1.05813 -16.2656,-1.64042 -20.1357,-1.52838 -20.2803,-3.3862 -0.2002,-2.57229 l 15.7939,0.64017 0,-2.97759 c 0,-1.63769 -0.6467,-6.05307 -1.4372,-9.81196 -0.7905,-3.75889 -2.1349,-11.12126 -2.9876,-16.36081 -0.8527,-5.23954 -1.982,-11.00172 -2.5095,-12.80484 -1.2529,-4.28274 0.3997,-3.30539 2.7056,1.60011 3.359,7.14564 16.4687,13.56121 46.847,22.92575 20.7533,6.39746 28.8684,9.82072 35.811,15.10652 8.9453,6.81043 17.1929,19.45848 23.2544,35.66146 4.0541,10.83677 7.8889,25.30087 7.3248,27.62739 -0.3381,1.39402 -0.4793,1.41403 -0.9467,0.1342 z"
       id="path3183"
       style="fill:#ffffff" />
  </g>
</svg>
